<?xml version="1.0" standalone="no"?>
<!DOCTYPE svg PUBLIC "-//W3C//DTD SVG 20010904//EN"
 "http://www.w3.org/TR/2001/REC-SVG-20010904/DTD/svg10.dtd">
<svg version="1.0" xmlns="http://www.w3.org/2000/svg"
 width="899.000000pt" height="899.000000pt" viewBox="0 0 899.000000 899.000000"
 preserveAspectRatio="xMidYMid meet">
<metadata>
Created by potrace 1.14, written by Peter Selinger 2001-2017
</metadata>
<g transform="translate(0.000000,899.000000) scale(0.100000,-0.100000)"
fill="#000000" stroke="none">
<path d="M4592 6370 c-90 -50 -201 -161 -226 -226 -6 -13 -13 -24 -18 -24 -4
0 -8 -9 -8 -19 0 -10 -7 -21 -15 -25 -8 -3 -15 -14 -15 -25 0 -11 -4 -23 -10
-26 -5 -3 -10 -15 -10 -26 0 -10 -4 -19 -10 -19 -5 0 -10 -8 -10 -17 0 -10 -7
-31 -15 -47 -8 -15 -15 -35 -15 -44 0 -8 -7 -32 -16 -52 -12 -27 -25 -39 -55
-48 -49 -15 -595 -17 -604 -2 -3 6 -30 10 -60 10 -30 0 -66 5 -82 11 -29 12
-117 26 -213 35 -30 3 -59 10 -65 15 -5 5 -27 9 -48 9 -21 0 -53 6 -70 14 -18
8 -52 17 -77 20 -105 12 -177 24 -203 35 -16 6 -47 11 -71 11 -23 0 -46 4 -52
9 -5 5 -38 11 -74 14 -36 3 -85 10 -110 15 -71 17 -506 14 -555 -3 -22 -8 -59
-15 -82 -15 -23 0 -45 -4 -48 -10 -3 -5 -18 -10 -33 -10 -15 -1 -38 -7 -52
-15 -14 -8 -35 -14 -47 -15 -13 0 -23 -4 -23 -10 0 -5 -11 -10 -24 -10 -13 0
-29 -7 -36 -15 -7 -8 -18 -15 -26 -15 -7 0 -40 -16 -73 -35 -32 -19 -62 -35
-65 -35 -9 0 -206 -197 -206 -205 0 -5 -11 -23 -25 -41 -14 -18 -25 -40 -25
-48 0 -9 -4 -16 -10 -16 -5 0 -10 -9 -10 -21 0 -11 -7 -27 -15 -35 -8 -9 -15
-30 -15 -48 0 -17 -5 -37 -10 -42 -7 -7 -10 -70 -7 -180 5 -180 11 -226 33
-245 8 -6 14 -22 14 -35 0 -13 5 -24 10 -24 6 0 10 -8 10 -18 0 -9 11 -29 25
-44 14 -15 25 -32 25 -39 0 -18 153 -164 188 -180 18 -8 32 -17 32 -21 0 -4
16 -15 35 -24 33 -15 37 -15 70 0 19 9 35 24 35 32 0 8 6 23 12 34 10 16 10
24 0 40 -6 11 -12 25 -12 31 0 14 -20 32 -53 47 -15 6 -30 19 -33 27 -4 8 -12
15 -18 15 -7 0 -19 11 -26 25 -7 14 -19 25 -27 25 -7 0 -13 3 -13 8 0 4 -11
21 -25 37 -38 47 -38 47 -67 105 -31 64 -40 111 -40 200 1 116 14 183 52 252
6 10 10 25 10 33 0 8 4 15 8 15 4 0 16 15 26 33 23 40 139 153 166 162 11 3
20 11 20 16 0 5 9 9 19 9 11 0 23 4 26 10 11 18 163 78 220 87 17 2 39 8 50
13 59 25 401 32 595 12 198 -20 254 -28 277 -40 12 -7 46 -12 77 -12 30 0 58
-4 61 -10 3 -5 30 -10 60 -10 30 0 57 -4 60 -10 3 -5 23 -10 44 -10 21 0 58
-7 81 -15 23 -8 64 -15 91 -15 27 0 49 -4 49 -10 0 -5 21 -10 48 -10 26 -1 65
-7 87 -15 22 -8 63 -15 90 -15 28 0 55 -4 60 -9 17 -16 481 -37 498 -23 7 6
46 12 87 13 l75 2 3 -42 c2 -24 0 -51 -4 -60 -16 -32 -36 -241 -44 -446 -13
-323 -29 -565 -40 -585 -6 -10 -10 -43 -10 -73 l0 -55 -47 -10 c-27 -6 -142
-13 -258 -16 -229 -6 -311 -17 -331 -44 -7 -9 -14 -39 -14 -66 0 -38 5 -53 22
-68 21 -18 35 -19 193 -15 93 3 215 10 270 16 127 13 145 9 145 -34 0 -18 -6
-38 -14 -44 -8 -7 -17 -39 -20 -74 -9 -108 -18 -162 -27 -171 -5 -6 -9 -24 -9
-41 0 -17 -7 -40 -15 -51 -8 -10 -15 -38 -15 -61 0 -24 -4 -43 -10 -43 -5 0
-10 -10 -10 -23 0 -13 -7 -32 -15 -43 -8 -10 -15 -31 -15 -46 0 -15 -4 -30
-10 -33 -5 -3 -10 -17 -10 -30 0 -13 -4 -26 -9 -30 -5 -3 -12 -19 -16 -35 -4
-17 -11 -30 -16 -30 -5 0 -9 -6 -9 -13 0 -14 -29 -78 -39 -87 -3 -3 -13 -18
-21 -35 -8 -16 -21 -34 -27 -38 -7 -4 -13 -15 -13 -24 0 -9 -8 -23 -18 -32
-10 -9 -28 -32 -40 -51 -11 -19 -35 -48 -52 -63 -16 -16 -30 -33 -30 -38 0 -5
-4 -9 -10 -9 -5 0 -32 -22 -59 -50 -28 -27 -56 -50 -63 -50 -8 0 -20 -9 -28
-20 -8 -11 -23 -20 -33 -20 -9 0 -20 -7 -23 -15 -4 -8 -12 -15 -20 -15 -8 0
-14 -4 -14 -10 0 -5 -9 -10 -19 -10 -11 0 -21 -3 -23 -7 -5 -11 -67 -43 -84
-43 -14 0 -22 -3 -82 -33 -19 -9 -49 -17 -68 -17 -19 0 -34 -4 -34 -10 0 -5
-19 -10 -42 -10 -24 0 -61 -7 -83 -15 -58 -21 -488 -21 -568 0 -32 8 -73 15
-92 15 -19 0 -37 5 -40 10 -3 6 -23 10 -44 10 -22 0 -44 6 -51 15 -7 8 -25 15
-41 15 -15 0 -31 5 -34 10 -3 5 -17 10 -30 10 -13 0 -27 5 -30 10 -3 6 -14 10
-24 10 -21 0 -215 98 -219 111 -2 5 -9 9 -16 9 -7 0 -24 9 -37 20 -12 12 -39
31 -59 43 -47 29 -197 184 -216 222 -20 44 -67 69 -115 62 -54 -7 -69 -26 -69
-87 0 -45 4 -56 35 -88 19 -20 35 -45 35 -54 0 -10 6 -18 13 -18 6 0 23 -16
37 -35 14 -19 31 -35 38 -35 6 0 12 -6 12 -12 1 -13 91 -88 107 -88 4 0 17
-11 27 -25 10 -14 23 -25 28 -25 8 0 86 -48 98 -60 3 -3 23 -15 45 -27 54 -29
95 -48 195 -91 14 -6 53 -18 87 -28 35 -10 63 -21 63 -26 0 -4 15 -8 34 -8 19
0 38 -4 41 -10 3 -5 21 -10 40 -10 19 0 46 -5 62 -11 54 -22 179 -32 403 -31
239 0 371 10 407 30 12 6 37 12 57 12 19 0 38 4 41 10 3 6 20 10 36 10 17 0
37 7 45 15 9 8 26 15 40 15 13 0 24 5 24 10 0 6 11 10 25 10 14 0 25 5 25 10
0 6 9 10 20 10 11 0 23 7 26 15 4 8 17 15 30 15 13 0 24 5 24 10 0 6 8 10 18
10 9 0 28 12 41 25 13 14 29 25 36 25 7 0 29 16 49 35 21 19 42 35 47 35 12 0
189 177 189 190 0 4 18 28 40 52 22 23 40 51 40 61 0 9 4 17 8 17 5 0 17 16
28 35 10 19 22 35 26 35 5 0 8 11 8 25 0 14 3 25 8 25 4 0 16 17 26 38 10 20
22 45 27 54 5 10 9 24 9 32 0 7 7 19 15 26 8 7 15 21 15 31 0 11 4 27 9 37 14
28 33 85 38 115 3 15 9 27 14 27 5 0 9 15 9 34 0 19 4 37 9 41 6 3 13 26 17
50 3 25 10 45 15 45 5 0 9 22 9 49 0 28 5 53 10 56 6 3 10 28 10 54 0 26 4 51
10 57 5 5 12 36 15 69 4 33 11 69 15 80 5 11 10 31 12 44 5 42 73 50 413 51
165 0 320 5 345 11 53 12 1298 29 1320 18 12 -6 17 -62 28 -326 18 -454 22
-517 33 -527 5 -6 9 -37 9 -71 0 -38 5 -68 15 -81 8 -11 15 -41 15 -69 0 -28
4 -55 9 -60 5 -6 11 -30 14 -55 6 -55 29 -146 40 -156 4 -4 7 -22 7 -40 0 -18
8 -47 17 -66 31 -62 33 -68 33 -88 0 -11 4 -28 9 -38 5 -9 28 -56 52 -104 23
-49 46 -88 51 -88 4 0 8 -9 8 -21 0 -11 7 -27 15 -35 20 -20 95 -23 129 -5 24
13 26 20 26 73 0 32 -4 58 -9 58 -5 0 -12 11 -15 25 -4 14 -11 25 -16 25 -6 0
-10 11 -10 24 0 13 -3 26 -7 28 -5 2 -16 21 -27 43 -10 22 -22 48 -27 57 -5
10 -9 27 -9 39 0 11 -7 27 -15 35 -8 9 -15 28 -15 44 0 16 -4 31 -9 34 -5 3
-11 20 -14 38 -3 18 -13 60 -22 93 -9 33 -19 80 -22 105 -2 25 -7 52 -10 60
-24 58 -50 288 -63 545 -4 105 -11 253 -15 330 -6 114 -4 144 7 159 14 18 31
19 356 17 336 -2 342 -2 364 19 18 16 23 31 22 66 -2 93 -48 104 -442 104
l-294 0 6 133 c9 219 33 425 57 482 4 11 10 38 13 60 2 22 12 67 21 100 10 33
19 77 22 98 3 20 9 40 14 43 5 3 9 19 9 35 0 17 6 32 15 35 8 4 15 17 15 30 0
13 4 32 9 42 5 9 17 35 27 57 11 22 22 42 27 43 4 2 7 14 7 27 0 12 7 25 15
29 8 3 15 12 15 19 0 8 16 31 35 51 19 21 35 41 35 45 0 13 93 101 107 101 7
0 13 4 13 9 0 5 16 16 35 25 19 9 37 21 40 26 3 6 26 10 50 10 24 0 47 5 51
11 10 16 135 -4 169 -27 26 -19 74 -18 81 1 4 8 12 15 20 15 8 0 14 7 14 15 0
8 6 24 12 35 10 15 10 22 0 32 -6 6 -12 20 -12 30 0 10 -11 24 -25 30 -14 6
-25 15 -25 20 0 4 -10 8 -23 8 -13 0 -28 5 -33 10 -14 14 -273 15 -287 1 -6
-6 -24 -11 -39 -11 -15 0 -28 -4 -28 -8 0 -8 -68 -42 -83 -42 -4 0 -23 -16
-43 -35 -19 -19 -48 -42 -63 -51 -16 -9 -37 -31 -47 -48 -10 -17 -33 -46 -51
-63 -18 -18 -33 -37 -33 -42 0 -15 -51 -101 -61 -101 -5 0 -9 -11 -9 -25 0
-14 -4 -25 -10 -25 -5 0 -10 -7 -10 -16 0 -9 -6 -28 -14 -42 -21 -41 -32 -71
-51 -134 -9 -32 -21 -60 -26 -64 -5 -3 -9 -20 -9 -39 0 -19 -4 -36 -9 -39 -5
-3 -12 -26 -15 -51 -4 -24 -11 -47 -17 -50 -5 -4 -9 -26 -9 -50 0 -24 -4 -47
-10 -50 -5 -3 -10 -30 -10 -59 0 -30 -6 -60 -15 -72 -9 -12 -14 -43 -15 -89 0
-39 -4 -75 -9 -80 -5 -6 -12 -62 -15 -125 -3 -63 -9 -149 -13 -190 l-8 -75
-455 -6 c-250 -3 -464 -9 -475 -12 -17 -6 -220 -13 -988 -34 l-159 -4 6 78
c10 133 26 467 34 713 4 129 12 242 17 250 6 8 13 51 17 95 12 135 21 177 43
189 10 6 36 21 57 34 21 12 44 22 53 22 8 0 15 5 15 10 0 6 9 10 19 10 11 0
23 5 26 10 4 6 21 21 40 33 86 58 175 130 175 142 0 7 47 71 68 93 6 7 12 20
12 28 0 8 5 14 10 14 6 0 10 9 10 19 0 11 6 21 12 23 14 5 25 151 14 191 -6
26 -40 66 -76 90 -36 25 -182 23 -228 -3z m123 -161 c11 -16 -18 -99 -42 -126
-13 -13 -23 -28 -23 -33 0 -16 -137 -150 -154 -150 -9 0 -16 -4 -16 -9 0 -10
-58 -36 -65 -29 -3 3 1 18 10 34 8 16 15 35 15 42 0 6 5 12 10 12 6 0 10 11
10 25 0 14 5 25 10 25 6 0 10 7 10 15 0 8 11 25 25 39 14 14 25 29 25 33 0 15
81 103 95 103 7 0 18 7 25 15 14 17 56 20 65 4z"/>
</g>
</svg>
